<svg xmlns="http://www.w3.org/2000/svg" width="31.086" height="30.001" viewBox="0 0 31.086 30.001"><g id="Group_125" data-name="Group 125" transform="translate(1273.333 385.505)" opacity="0.2"><path id="Path_236" data-name="Path 236" d="M-1261.882-359.336a11.872,11.872,0,0,1-.956-4.634c-.017-.365-.026-1.035.019-2.682a25.266,25.266,0,0,1,.785-5.26c.018-.074.042-.146.06-.22a8.328,8.328,0,0,0-2.778-.471c-.282,0-.57.012-.864.036a5.216,5.216,0,0,0-.864.141,30.521,30.521,0,0,1,.916-3.208q.564-1.516,1.164-2.82t1.2-2.362q.564-1.093,1.022-1.868c.164-.259.306-.494.423-.705a6.113,6.113,0,0,0,.282-.564,6.591,6.591,0,0,0,.229-.652.6.6,0,0,0-.229-.688.722.722,0,0,0-.229-.158.658.658,0,0,0-.264-.053,1.142,1.142,0,0,0-.564.159q-.281.158-.564.335-.352.211-.864.582t-1.392,1l-.035.035a23.594,23.594,0,0,0-2.715,2.908,24.217,24.217,0,0,0-2.186,3.3,23.14,23.14,0,0,0-1.357,2.944,25.941,25.941,0,0,0-.969,3.155,22.146,22.146,0,0,0-.688,4.53q-.052,1.922-.018,2.486a8.368,8.368,0,0,0,.67,3.349,8.655,8.655,0,0,0,1.833,2.714,8.649,8.649,0,0,0,2.714,1.833,8.533,8.533,0,0,0,3.349.67,8.276,8.276,0,0,0,3.313-.67,8.925,8.925,0,0,0,1.087-.569A12.271,12.271,0,0,1-1261.882-359.336Z" fill="#377dff"></path><path id="Path_237" data-name="Path 237" d="M-1249.319-364.07q-.035-.564.017-2.486a22.146,22.146,0,0,1,.688-4.53,25.877,25.877,0,0,1,.97-3.155,23.157,23.157,0,0,1,1.357-2.944,24.228,24.228,0,0,1,2.186-3.3,23.566,23.566,0,0,1,2.715-2.908l.035-.035q.882-.634,1.393-1t.864-.582c.189-.118.376-.229.564-.335a1.142,1.142,0,0,1,.564-.159.657.657,0,0,1,.264.053.724.724,0,0,1,.229.158.6.6,0,0,1,.229.688,6.687,6.687,0,0,1-.229.652,6.144,6.144,0,0,1-.282.564q-.176.317-.423.705-.458.775-1.022,1.868-.6,1.058-1.2,2.362t-1.163,2.82a30.433,30.433,0,0,0-.916,3.208,5.212,5.212,0,0,1,.864-.141c.294-.024.582-.036.864-.036a8.266,8.266,0,0,1,3.314.67,8.631,8.631,0,0,1,2.714,1.833,8.638,8.638,0,0,1,1.834,2.714,8.36,8.36,0,0,1,.669,3.349,8.275,8.275,0,0,1-.669,3.314,8.651,8.651,0,0,1-1.834,2.714,8.642,8.642,0,0,1-2.714,1.833,8.276,8.276,0,0,1-3.314.67,8.532,8.532,0,0,1-3.349-.67,8.649,8.649,0,0,1-2.714-1.833,8.659,8.659,0,0,1-1.833-2.714A8.368,8.368,0,0,1-1249.319-364.07Z" transform="translate(-10.026)" fill="#377dff"></path></g></svg>