<svg xmlns="http://www.w3.org/2000/svg" width="40.1" height="40.098" viewBox="0 0 40.1 40.098"><g transform="translate(-307.431 -117.027)"><path d="M343.24,141.388v5.281H327.482V160.6h14.742l6.645,4.6v-4.6h5.313V141.388Zm3.968,14.566H334.455V153.6h12.753Zm0-4.7H334.455V148.9h12.753Z" transform="translate(-6.65 -8.08)" fill="#377dff"></path><path d="M334.24,117.027H307.431V136.24h5.29v4.6l6.645-4.6H334.24ZM322,132.207H319.65v-2.35H322Zm0-5.258v1.277H319.65v-3.4h1.175a.795.795,0,1,0-.8-.795H317.68A3.144,3.144,0,1,1,322,126.948Z" fill="#ebf2ff"></path></g></svg>