<svg xmlns="http://www.w3.org/2000/svg" width="90" height="90" viewBox="0 0 90 90"><g transform="translate(-859 -929.313)"><rect width="10" height="1" transform="translate(859 933.813)" fill="#00c9a7"></rect><rect width="10" height="1" transform="translate(864.5 929.313) rotate(90)" fill="#00c9a7"></rect><rect width="4" height="4" rx="2" transform="translate(862 932.313)" fill="#00c9a7"></rect><rect width="10" height="1" transform="translate(879 933.813)" fill="#00c9a7"></rect><rect width="10" height="1" transform="translate(884.5 929.313) rotate(90)" fill="#00c9a7"></rect><rect width="4" height="4" rx="2" transform="translate(882 932.313)" fill="#00c9a7"></rect><rect width="10" height="1" transform="translate(899 933.813)" fill="#00c9a7"></rect><rect width="10" height="1" transform="translate(904.5 929.313) rotate(90)" fill="#00c9a7"></rect><rect width="4" height="4" rx="2" transform="translate(902 932.313)" fill="#00c9a7"></rect><rect width="10" height="1" transform="translate(919 933.813)" fill="#00c9a7"></rect><rect width="10" height="1" transform="translate(924.5 929.313) rotate(90)" fill="#00c9a7"></rect><rect width="4" height="4" rx="2" transform="translate(922 932.313)" fill="#00c9a7"></rect><rect width="10" height="1" transform="translate(939 933.813)" fill="#00c9a7"></rect><rect width="10" height="1" transform="translate(944.5 929.313) rotate(90)" fill="#00c9a7"></rect><rect width="4" height="4" rx="2" transform="translate(942 932.313)" fill="#00c9a7"></rect><rect width="10" height="1" transform="translate(859 953.813)" fill="#00c9a7"></rect><rect width="10" height="1" transform="translate(864.5 949.313) rotate(90)" fill="#00c9a7"></rect><rect width="4" height="4" rx="2" transform="translate(862 952.313)" fill="#00c9a7"></rect><rect width="10" height="1" transform="translate(879 953.813)" fill="#00c9a7"></rect><rect width="10" height="1" transform="translate(884.5 949.313) rotate(90)" fill="#00c9a7"></rect><rect width="4" height="4" rx="2" transform="translate(882 952.313)" fill="#00c9a7"></rect><rect width="10" height="1" transform="translate(899 953.813)" fill="#00c9a7"></rect><rect width="10" height="1" transform="translate(904.5 949.313) rotate(90)" fill="#00c9a7"></rect><rect width="4" height="4" rx="2" transform="translate(902 952.313)" fill="#00c9a7"></rect><rect width="10" height="1" transform="translate(919 953.813)" fill="#00c9a7"></rect><rect width="10" height="1" transform="translate(924.5 949.313) rotate(90)" fill="#00c9a7"></rect><rect width="4" height="4" rx="2" transform="translate(922 952.313)" fill="#00c9a7"></rect><rect width="10" height="1" transform="translate(939 953.813)" fill="#00c9a7"></rect><rect width="10" height="1" transform="translate(944.5 949.313) rotate(90)" fill="#00c9a7"></rect><rect width="4" height="4" rx="2" transform="translate(942 952.313)" fill="#00c9a7"></rect><rect width="10" height="1" transform="translate(859 973.813)" fill="#00c9a7"></rect><rect width="10" height="1" transform="translate(864.5 969.313) rotate(90)" fill="#00c9a7"></rect><rect width="4" height="4" rx="2" transform="translate(862 972.313)" fill="#00c9a7"></rect><rect width="10" height="1" transform="translate(879 973.813)" fill="#00c9a7"></rect><rect width="10" height="1" transform="translate(884.5 969.313) rotate(90)" fill="#00c9a7"></rect><rect width="4" height="4" rx="2" transform="translate(882 972.313)" fill="#00c9a7"></rect><rect width="10" height="1" transform="translate(899 973.813)" fill="#00c9a7"></rect><rect width="10" height="1" transform="translate(904.5 969.313) rotate(90)" fill="#00c9a7"></rect><rect width="4" height="4" rx="2" transform="translate(902 972.313)" fill="#00c9a7"></rect><rect width="10" height="1" transform="translate(919 973.813)" fill="#00c9a7"></rect><rect width="10" height="1" transform="translate(924.5 969.313) rotate(90)" fill="#00c9a7"></rect><rect width="4" height="4" rx="2" transform="translate(922 972.313)" fill="#00c9a7"></rect><rect width="10" height="1" transform="translate(939 973.813)" fill="#00c9a7"></rect><rect width="10" height="1" transform="translate(944.5 969.313) rotate(90)" fill="#00c9a7"></rect><rect width="4" height="4" rx="2" transform="translate(942 972.313)" fill="#00c9a7"></rect><rect width="10" height="1" transform="translate(859 993.813)" fill="#00c9a7"></rect><rect width="10" height="1" transform="translate(864.5 989.313) rotate(90)" fill="#00c9a7"></rect><rect width="4" height="4" rx="2" transform="translate(862 992.313)" fill="#00c9a7"></rect><rect width="10" height="1" transform="translate(879 993.813)" fill="#00c9a7"></rect><rect width="10" height="1" transform="translate(884.5 989.313) rotate(90)" fill="#00c9a7"></rect><rect width="4" height="4" rx="2" transform="translate(882 992.313)" fill="#00c9a7"></rect><rect width="10" height="1" transform="translate(899 993.813)" fill="#00c9a7"></rect><rect width="10" height="1" transform="translate(904.5 989.313) rotate(90)" fill="#00c9a7"></rect><rect width="4" height="4" rx="2" transform="translate(902 992.313)" fill="#00c9a7"></rect><rect width="10" height="1" transform="translate(919 993.813)" fill="#00c9a7"></rect><rect width="10" height="1" transform="translate(924.5 989.313) rotate(90)" fill="#00c9a7"></rect><rect width="4" height="4" rx="2" transform="translate(922 992.313)" fill="#00c9a7"></rect><rect width="10" height="1" transform="translate(939 993.813)" fill="#00c9a7"></rect><rect width="10" height="1" transform="translate(944.5 989.313) rotate(90)" fill="#00c9a7"></rect><rect width="4" height="4" rx="2" transform="translate(942 992.313)" fill="#00c9a7"></rect><rect width="10" height="1" transform="translate(859 1013.813)" fill="#00c9a7"></rect><rect width="10" height="1" transform="translate(864.5 1009.313) rotate(90)" fill="#00c9a7"></rect><rect width="4" height="4" rx="2" transform="translate(862 1012.313)" fill="#00c9a7"></rect><rect width="10" height="1" transform="translate(879 1013.813)" fill="#00c9a7"></rect><rect width="10" height="1" transform="translate(884.5 1009.313) rotate(90)" fill="#00c9a7"></rect><rect width="4" height="4" rx="2" transform="translate(882 1012.313)" fill="#00c9a7"></rect><rect width="10" height="1" transform="translate(899 1013.813)" fill="#00c9a7"></rect><rect width="10" height="1" transform="translate(904.5 1009.313) rotate(90)" fill="#00c9a7"></rect><rect width="4" height="4" rx="2" transform="translate(902 1012.313)" fill="#00c9a7"></rect><rect width="10" height="1" transform="translate(919 1013.813)" fill="#00c9a7"></rect><rect width="10" height="1" transform="translate(924.5 1009.313) rotate(90)" fill="#00c9a7"></rect><rect width="4" height="4" rx="2" transform="translate(922 1012.313)" fill="#00c9a7"></rect><rect width="10" height="1" transform="translate(939 1013.813)" fill="#00c9a7"></rect><rect width="10" height="1" transform="translate(944.5 1009.313) rotate(90)" fill="#00c9a7"></rect><rect width="4" height="4" rx="2" transform="translate(942 1012.313)" fill="#00c9a7"></rect></g></svg>