<svg xmlns="http://www.w3.org/2000/svg" width="40.103" height="40.103" viewBox="0 0 40.103 40.103"><g transform="translate(-218.017 -237.288)"><g transform="translate(218.017 237.288)"><path d="M227.485,237.288h-7.8a1.676,1.676,0,0,0-1.67,1.671V259.01a1.676,1.676,0,0,0,1.67,1.671h7.8a1.674,1.674,0,0,0,1.67-1.671V238.959A1.675,1.675,0,0,0,227.485,237.288Z" transform="translate(-218.017 -237.288)" fill="#ebf2ff"></path></g><g transform="translate(218.017 264.023)"><path d="M227.485,277.288h-7.8a1.676,1.676,0,0,0-1.67,1.671v10.026a1.676,1.676,0,0,0,1.67,1.671h7.8a1.675,1.675,0,0,0,1.67-1.671V278.959A1.675,1.675,0,0,0,227.485,277.288Z" transform="translate(-218.017 -277.288)" fill="#bfcdfd"></path></g><g transform="translate(246.981 237.288)"><path d="M270.82,237.288h-7.8a1.676,1.676,0,0,0-1.67,1.671V259.01a1.676,1.676,0,0,0,1.67,1.671h7.8a1.676,1.676,0,0,0,1.671-1.671V238.959A1.677,1.677,0,0,0,270.82,237.288Z" transform="translate(-261.352 -237.288)" fill="#ebf2ff"></path></g><g transform="translate(246.981 264.023)"><path d="M270.82,277.288h-7.8a1.676,1.676,0,0,0-1.67,1.671v10.026a1.676,1.676,0,0,0,1.67,1.671h7.8a1.677,1.677,0,0,0,1.671-1.671V278.959A1.677,1.677,0,0,0,270.82,277.288Z" transform="translate(-261.352 -277.288)" fill="#ebf2ff"></path></g><g transform="translate(232.499 253.998)"><path d="M249.152,262.288h-7.8a1.677,1.677,0,0,0-1.672,1.671v20.052a1.677,1.677,0,0,0,1.672,1.671h7.8a1.677,1.677,0,0,0,1.672-1.671V263.959A1.677,1.677,0,0,0,249.152,262.288Z" transform="translate(-239.684 -262.288)" fill="#377dff"></path></g><g transform="translate(232.499 237.288)"><path d="M249.152,237.288h-7.8a1.677,1.677,0,0,0-1.672,1.671v10.026a1.676,1.676,0,0,0,1.672,1.671h7.8a1.676,1.676,0,0,0,1.672-1.671V238.959A1.677,1.677,0,0,0,249.152,237.288Z" transform="translate(-239.684 -237.288)" fill="#bfcdfd"></path></g></g></svg>