<svg xmlns="http://www.w3.org/2000/svg" width="40.097" height="40.103" viewBox="0 0 40.097 40.103"><g transform="translate(1880.274 -129.676)"><path d="M-1830.368,149.377l-16.665,6.518,16.766,6.867A19.838,19.838,0,0,0-1830.368,149.377Z" transform="translate(-11.024 -6.533)" fill="#ebf2ff"></path><path d="M-1841.23,179.1a19.9,19.9,0,0,0,10-9.7l-16-6.555Z" transform="translate(-10.957 -11)" fill="#bfcdfd"></path><path d="M-1879.169,149.991a19.837,19.837,0,0,0,.108,13.361,19.867,19.867,0,0,0,9.385,10.76l7.992-16.959Z" transform="translate(0 -6.737)" fill="#377dff"></path><path d="M-1861.225,179.915a20.032,20.032,0,0,0,7.375,1.417,19.8,19.8,0,0,0,5.776-.864l-5.894-15.953Z" transform="translate(-6.317 -11.553)" fill="#ebf2ff"></path><path d="M-1851.625,131.176a19.935,19.935,0,0,0-6.674-1.478,19.951,19.951,0,0,0-7.821,1.2,19.9,19.9,0,0,0-11.165,10.186l17.6,7.206Z" transform="translate(-0.991)" fill="#ebf2ff"></path></g></svg>