<svg xmlns="http://www.w3.org/2000/svg" width="119.891" height="119.891" viewBox="0 0 119.891 119.891"><g transform="translate(-806.805 -666.618)"><path d="M842.384,671.734,811.921,702.2c-.686,1.544-1.314,3.106-1.863,4.691l37.017-37.017C845.49,670.42,843.928,671.048,842.384,671.734Z" fill="#ffc107"></path><path d="M861.455,666.8l-54.463,54.463q-.132,1.506-.187,3.016l57.666-57.666Q862.96,666.675,861.455,666.8Z" fill="#ffc107"></path><path d="M875.236,667.166l-67.883,67.883c.115.811.255,1.619.4,2.425l69.905-69.905C876.855,667.421,876.047,667.281,875.236,667.166Z" fill="#ffc107"></path><path d="M886.612,669.932l-76.493,76.493c.241.69.508,1.372.775,2.054l77.772-77.772C887.984,670.44,887.3,670.173,886.612,669.932Z" fill="#ffc107"></path><path d="M896.326,674.361l-81.778,81.778q.509.9,1.05,1.778L898.1,675.411Q897.222,674.869,896.326,674.361Z" fill="#ffc107"></path><path d="M904.722,680.106l-84.429,84.429c.422.515.865,1.018,1.307,1.522l84.644-84.644C905.74,680.971,905.237,680.528,904.722,680.106Z" fill="#ffc107"></path><path d="M828.779,773.021l84.429-84.43c-.422-.515-.865-1.017-1.307-1.521l-84.644,84.644C827.761,772.155,828.264,772.6,828.779,773.021Z" fill="#ffc107"></path><path d="M837.175,778.766l81.778-81.778q-.508-.9-1.05-1.778L835.4,777.716Q836.279,778.258,837.175,778.766Z" fill="#ffc107"></path><path d="M846.889,783.2,923.382,706.7c-.241-.689-.508-1.371-.775-2.053L844.835,782.42C845.517,782.687,846.2,782.954,846.889,783.2Z" fill="#ffc107"></path><path d="M858.265,785.961l67.883-67.883c-.115-.811-.255-1.619-.4-2.426l-69.9,69.906C856.646,785.706,857.454,785.846,858.265,785.961Z" fill="#ffc107"></path><path d="M872.046,786.321l54.463-54.462q.132-1.506.187-3.016L869.03,786.509Q870.54,786.452,872.046,786.321Z" fill="#ffc107"></path><path d="M891.117,781.393,921.58,750.93c.686-1.544,1.314-3.107,1.863-4.692l-37.017,37.018C888.011,782.707,889.573,782.079,891.117,781.393Z" fill="#ffc107"></path></g></svg>