<svg xmlns="http://www.w3.org/2000/svg" width="13.334" height="20" viewBox="0 0 13.334 20"><g transform="translate(-826.833 -1240)"><path d="M830.167,1260a3.334,3.334,0,0,0,3.333-3.333v-3.334h-3.333a3.333,3.333,0,1,0,0,6.667Z" fill="#0acf83"></path><path d="M826.833,1250a3.335,3.335,0,0,1,3.334-3.333H833.5v6.666h-3.333A3.335,3.335,0,0,1,826.833,1250Z" fill="#a259ff"></path><path d="M826.833,1243.333a3.335,3.335,0,0,1,3.334-3.333H833.5v6.667h-3.333A3.336,3.336,0,0,1,826.833,1243.333Z" fill="#f24e1e"></path><path d="M833.5,1240h3.333a3.333,3.333,0,1,1,0,6.667H833.5Z" fill="#ff7262"></path><path d="M840.167,1250a3.333,3.333,0,1,1-3.334-3.333A3.335,3.335,0,0,1,840.167,1250Z" fill="#1abcfe"></path></g></svg>