<svg xmlns="http://www.w3.org/2000/svg" width="40.09" height="40.09" viewBox="0 0 40.09 40.09"><g transform="translate(-307.431 -237.288)"><g transform="translate(323.467 253.324)"><circle cx="4" cy="4" r="4" transform="translate(-0.036 -0.036)" fill="#bfcdfd"></circle></g><g transform="translate(307.431 237.288)"><path d="M327.476,237.288a20.045,20.045,0,0,0-12.027,36.081v-5.412a16.562,16.562,0,0,1-4.009-10.624,16.036,16.036,0,1,1,32.072,0,16.563,16.563,0,0,1-4.009,10.624v5.412a20.045,20.045,0,0,0-12.027-36.081Z" transform="translate(-307.431 -237.288)" fill="#ebf2ff"></path></g><g transform="translate(315.449 245.306)"><path d="M331.458,249.288a12.062,12.062,0,0,0-12.027,12.027,11.119,11.119,0,0,0,1.4,5.613,8.8,8.8,0,0,1,3.207-2.806,6.4,6.4,0,0,1-.6-2.806,8.018,8.018,0,0,1,16.036,0,6.4,6.4,0,0,1-.6,2.806,8.581,8.581,0,0,1,3.207,2.806,11.119,11.119,0,0,0,1.4-5.613A12.062,12.062,0,0,0,331.458,249.288Z" transform="translate(-319.431 -249.288)" fill="#377dff"></path></g><g transform="translate(319.458 263.346)"><path d="M337.458,276.288H329.44a4.021,4.021,0,0,0-4.009,4.009v10.022h16.036V280.3A4.021,4.021,0,0,0,337.458,276.288Z" transform="translate(-325.431 -276.288)" fill="#bfcdfd"></path></g></g></svg>