<svg xmlns="http://www.w3.org/2000/svg" width="20.512" height="20" viewBox="0 0 20.512 20"><g transform="translate(-1239.744 -1208.75)"><path d="M1256.624,1228.75h-13.248a3.629,3.629,0,0,1-3.632-3.632v-12.736a3.629,3.629,0,0,1,3.632-3.632h13.248a3.629,3.629,0,0,1,3.632,3.632v12.736A3.629,3.629,0,0,1,1256.624,1228.75Z" fill="#ff26be"></path><path d="M1256.3,1227.9h-12.6a3.107,3.107,0,0,1-3.1-3.1v-12.086a3.107,3.107,0,0,1,3.1-3.1h12.59a3.1,3.1,0,0,1,3.1,3.1v12.077a3.1,3.1,0,0,1-3.094,3.111Z" fill="#2e001f"></path><path d="M1247.854,1218.109l2.394,4.6c.042.068.017.137-.052.137h-1.487a.166.166,0,0,1-.18-.111c-.547-1.128-1.1-2.256-1.676-3.47h-.017c-.513,1.146-1.077,2.351-1.624,3.479a.165.165,0,0,1-.154.1h-1.409c-.085,0-.094-.069-.051-.12l2.342-4.462-2.265-4.513a.069.069,0,0,1,.051-.12h1.471c.085,0,.12.017.153.1.538,1.128,1.086,2.29,1.6,3.427h.017c.5-1.128,1.043-2.3,1.573-3.419.042-.068.068-.111.154-.111h1.376c.068,0,.094.052.052.12Zm2.813,1.393a3.344,3.344,0,0,1,3.427-3.547,3.8,3.8,0,0,1,.445.017v-2.264a.086.086,0,0,1,.085-.086h1.351c.068,0,.085.026.085.068v7.847a6.072,6.072,0,0,0,.043.838c0,.051-.017.068-.068.094a5.089,5.089,0,0,1-2.188.5c-1.856.007-3.181-1.138-3.18-3.463Zm3.871-2.187a1.275,1.275,0,0,0-.495-.086c-1.078,0-1.829.829-1.829,2.206,0,1.573.769,2.2,1.735,2.2a1.6,1.6,0,0,0,.59-.094v-4.231Z" fill="#ffd9f2"></path></g></svg>